<?xml version="1.0" ?>
<!-- Uploaded to: SVG Repo, www.svgrepo.com, Generator: SVG Repo Mixer Tools -->
<svg fill="#000000" width="800px" height="800px" viewBox="0 0 64 64" id="Layer_1" version="1.1" xml:space="preserve" xmlns="http://www.w3.org/2000/svg" xmlns:xlink="http://www.w3.org/1999/xlink">
<g>
<path d="M12.1,58h39.8l-0.5-3.9c1.9,0.5,4.3,0.9,7.6,0.9v-2c-3.5,0-5.9-0.4-7.8-1.1l-0.5-4.1c2.1,0.6,4.6,1.1,8.3,1.1v-2   c-4,0-6.5-0.6-8.6-1.3l-0.5-4c2.2,0.8,4.9,1.4,9.1,1.4v-2c-4.4,0-7-0.7-9.3-1.6L49,34h10.1l-4.2-23H37.8l-0.1,0.9   c-0.2,2.7-2.5,4.8-5.2,4.8c-2.7,0-5-2.1-5.2-4.8L27.2,11H9.1L4.9,33.6H15L12.1,58z M7.3,31.6L10.8,13h14.6c0.7,3.3,3.6,5.8,7.1,5.8   c3.4,0,6.4-2.5,7.1-5.8h13.7l3.5,19h-7.9l-0.9-7.8l-2,0.2l1.7,14C44.5,37.3,41.1,36,34,36v2c7.1,0,10.2,1.3,13.2,2.6   c0.2,0.1,0.4,0.2,0.6,0.3l0.5,4c-0.1,0-0.2-0.1-0.3-0.1c-3.2-1.3-6.5-2.7-14-2.7v2c7.1,0,10.2,1.3,13.2,2.6   c0.4,0.2,0.9,0.4,1.4,0.6l0.5,4c-0.4-0.1-0.7-0.3-1.1-0.4c-3.2-1.3-6.5-2.7-14-2.7v2c7.1,0,10.2,1.3,13.2,2.6   c0.7,0.3,1.4,0.6,2.1,0.8l0.3,2.6H14.4l3.7-31.5l-2-0.2l-0.9,7.4H7.3z"/>
</g>
</svg>